<mxfile host="app.diagrams.net" agent="Mozilla/5.0 (Windows NT 10.0; Win64; x64) AppleWebKit/537.36 (KHTML, like Gecko) Chrome/132.0.0.0 Safari/537.36" version="26.0.10">
  <diagram name="Page-1" id="G-2jrDsFllhq_hh4vfIp">
    <mxGraphModel dx="2049" dy="1103" grid="0" gridSize="10" guides="1" tooltips="1" connect="1" arrows="1" fold="1" page="1" pageScale="1" pageWidth="827" pageHeight="1169" math="0" shadow="0">
      <root>
        <mxCell id="0" />
        <mxCell id="1" parent="0" />
        <mxCell id="ki5i6c_FL17QetLp7yEN-2" value="" style="rounded=1;whiteSpace=wrap;html=1;" vertex="1" parent="1">
          <mxGeometry x="68" y="180" width="692" height="360" as="geometry" />
        </mxCell>
        <mxCell id="ki5i6c_FL17QetLp7yEN-3" value="&lt;pre&gt;&lt;font face=&quot;Lucida Console&quot; style=&quot;font-size: 39px;&quot;&gt;Book a Room&lt;/font&gt;&lt;/pre&gt;" style="text;strokeColor=none;align=center;fillColor=none;html=1;verticalAlign=middle;whiteSpace=wrap;rounded=0;" vertex="1" parent="1">
          <mxGeometry x="268" y="210" width="291" height="50" as="geometry" />
        </mxCell>
        <mxCell id="ki5i6c_FL17QetLp7yEN-4" value="&lt;font style=&quot;font-size: 13px;&quot;&gt;Text input&lt;/font&gt;" style="rounded=1;whiteSpace=wrap;html=1;" vertex="1" parent="1">
          <mxGeometry x="290" y="295" width="260" height="40" as="geometry" />
        </mxCell>
        <mxCell id="ki5i6c_FL17QetLp7yEN-5" value="&lt;font style=&quot;font-size: 13px;&quot;&gt;Dropdown button select input&lt;/font&gt;" style="rounded=1;whiteSpace=wrap;html=1;" vertex="1" parent="1">
          <mxGeometry x="289" y="380" width="261" height="40" as="geometry" />
        </mxCell>
        <mxCell id="ki5i6c_FL17QetLp7yEN-6" value="&lt;font style=&quot;font-size: 17px;&quot;&gt;Room number&lt;/font&gt;" style="text;strokeColor=none;align=center;fillColor=none;html=1;verticalAlign=middle;whiteSpace=wrap;rounded=0;" vertex="1" parent="1">
          <mxGeometry x="170" y="300" width="110" height="30" as="geometry" />
        </mxCell>
        <mxCell id="ki5i6c_FL17QetLp7yEN-7" value="&lt;font style=&quot;font-size: 17px;&quot;&gt;Select period&lt;/font&gt;" style="text;strokeColor=none;align=center;fillColor=none;html=1;verticalAlign=middle;whiteSpace=wrap;rounded=0;" vertex="1" parent="1">
          <mxGeometry x="165" y="385" width="115" height="30" as="geometry" />
        </mxCell>
        <mxCell id="ki5i6c_FL17QetLp7yEN-9" value="" style="shape=singleArrow;direction=south;whiteSpace=wrap;html=1;" vertex="1" parent="1">
          <mxGeometry x="509.5" y="380" width="30" height="40" as="geometry" />
        </mxCell>
        <mxCell id="ki5i6c_FL17QetLp7yEN-11" value="&lt;font style=&quot;font-size: 20px;&quot;&gt;Book room&lt;/font&gt;" style="rounded=1;whiteSpace=wrap;html=1;" vertex="1" parent="1">
          <mxGeometry x="539.5" y="470" width="196" height="40" as="geometry" />
        </mxCell>
        <mxCell id="ki5i6c_FL17QetLp7yEN-12" value="&lt;font style=&quot;font-size: 20px;&quot;&gt;Back to home&lt;/font&gt;" style="rounded=1;whiteSpace=wrap;html=1;" vertex="1" parent="1">
          <mxGeometry x="94" y="470" width="196" height="40" as="geometry" />
        </mxCell>
        <mxCell id="ki5i6c_FL17QetLp7yEN-14" value="" style="rounded=1;whiteSpace=wrap;html=1;" vertex="1" parent="1">
          <mxGeometry x="68" y="664" width="692" height="360" as="geometry" />
        </mxCell>
        <mxCell id="ki5i6c_FL17QetLp7yEN-15" value="&lt;pre&gt;&lt;font face=&quot;Lucida Console&quot; style=&quot;font-size: 39px;&quot;&gt;Book a Room&lt;/font&gt;&lt;/pre&gt;" style="text;strokeColor=none;align=center;fillColor=none;html=1;verticalAlign=middle;whiteSpace=wrap;rounded=0;" vertex="1" parent="1">
          <mxGeometry x="268" y="694" width="291" height="50" as="geometry" />
        </mxCell>
        <mxCell id="ki5i6c_FL17QetLp7yEN-16" value="&lt;font style=&quot;font-size: 13px;&quot;&gt;Text input&lt;/font&gt;" style="rounded=1;whiteSpace=wrap;html=1;" vertex="1" parent="1">
          <mxGeometry x="290" y="779" width="260" height="40" as="geometry" />
        </mxCell>
        <mxCell id="ki5i6c_FL17QetLp7yEN-18" value="&lt;font style=&quot;font-size: 17px;&quot;&gt;Room number&lt;/font&gt;" style="text;strokeColor=none;align=center;fillColor=none;html=1;verticalAlign=middle;whiteSpace=wrap;rounded=0;" vertex="1" parent="1">
          <mxGeometry x="170" y="784" width="110" height="30" as="geometry" />
        </mxCell>
        <mxCell id="ki5i6c_FL17QetLp7yEN-19" value="&lt;font style=&quot;font-size: 17px;&quot;&gt;Select period&lt;/font&gt;" style="text;strokeColor=none;align=center;fillColor=none;html=1;verticalAlign=middle;whiteSpace=wrap;rounded=0;" vertex="1" parent="1">
          <mxGeometry x="165" y="869" width="115" height="30" as="geometry" />
        </mxCell>
        <mxCell id="ki5i6c_FL17QetLp7yEN-20" value="" style="shape=singleArrow;direction=south;whiteSpace=wrap;html=1;" vertex="1" parent="1">
          <mxGeometry x="509.5" y="864" width="30" height="40" as="geometry" />
        </mxCell>
        <mxCell id="ki5i6c_FL17QetLp7yEN-21" value="&lt;font style=&quot;font-size: 20px;&quot;&gt;Book room&lt;/font&gt;" style="rounded=1;whiteSpace=wrap;html=1;" vertex="1" parent="1">
          <mxGeometry x="539.5" y="954" width="196" height="40" as="geometry" />
        </mxCell>
        <mxCell id="ki5i6c_FL17QetLp7yEN-22" value="&lt;font style=&quot;font-size: 20px;&quot;&gt;Back to home&lt;/font&gt;" style="rounded=1;whiteSpace=wrap;html=1;" vertex="1" parent="1">
          <mxGeometry x="94" y="954" width="196" height="40" as="geometry" />
        </mxCell>
        <mxCell id="ki5i6c_FL17QetLp7yEN-17" value="&lt;font style=&quot;font-size: 15px;&quot;&gt;Select a period&lt;/font&gt;" style="rounded=1;whiteSpace=wrap;html=1;align=left;" vertex="1" parent="1">
          <mxGeometry x="289" y="864" width="261" height="45" as="geometry" />
        </mxCell>
        <mxCell id="ki5i6c_FL17QetLp7yEN-27" value="" style="rounded=0;whiteSpace=wrap;html=1;" vertex="1" parent="1">
          <mxGeometry x="292" y="910" width="255" height="173" as="geometry" />
        </mxCell>
        <mxCell id="ki5i6c_FL17QetLp7yEN-24" value="Period 1 (9:00 to 10:00)" style="rounded=1;whiteSpace=wrap;html=1;" vertex="1" parent="1">
          <mxGeometry x="294" y="912" width="252" height="34" as="geometry" />
        </mxCell>
        <mxCell id="ki5i6c_FL17QetLp7yEN-25" value="Period 2 (10:00 to 11:00)" style="rounded=1;whiteSpace=wrap;html=1;" vertex="1" parent="1">
          <mxGeometry x="293.5" y="948" width="252" height="32" as="geometry" />
        </mxCell>
        <mxCell id="ki5i6c_FL17QetLp7yEN-28" value="Period 3 (11:20 to 12:20)" style="rounded=1;whiteSpace=wrap;html=1;" vertex="1" parent="1">
          <mxGeometry x="293.5" y="980" width="252" height="32" as="geometry" />
        </mxCell>
        <mxCell id="ki5i6c_FL17QetLp7yEN-29" value="Period 4 (12:20 to 13:20)" style="rounded=1;whiteSpace=wrap;html=1;" vertex="1" parent="1">
          <mxGeometry x="293.5" y="1012" width="252" height="32" as="geometry" />
        </mxCell>
        <mxCell id="ki5i6c_FL17QetLp7yEN-30" value="Period 5 (14:35 to 15:35)" style="rounded=1;whiteSpace=wrap;html=1;" vertex="1" parent="1">
          <mxGeometry x="294" y="1044" width="252" height="32" as="geometry" />
        </mxCell>
        <mxCell id="ki5i6c_FL17QetLp7yEN-32" value="" style="shape=flexArrow;endArrow=classic;html=1;rounded=0;exitX=0.912;exitY=0.089;exitDx=0;exitDy=0;exitPerimeter=0;strokeWidth=1;" edge="1" parent="1" source="ki5i6c_FL17QetLp7yEN-17">
          <mxGeometry width="50" height="50" relative="1" as="geometry">
            <mxPoint x="644" y="885" as="sourcePoint" />
            <mxPoint x="527" y="904" as="targetPoint" />
          </mxGeometry>
        </mxCell>
      </root>
    </mxGraphModel>
  </diagram>
</mxfile>
